# xmcd CD database file
# 
# Track frame offsets:
# 	150
# 	16195
# 	30225
# 	40722
# 	53170
# 	64495
# 	80112
# 	94437
# 	105847
# 	122307
# 	132727
# 
# Disc length: 1884 seconds
# 
# Submitted via: Nero 5.5.10.35
# 
# Revision: 0
# Processed by: cddbd v1.4PL0 Copyright (c) Steve Scherf et al.
#
DISCID=89075a0b
DTITLE=Dave Reynolds - Easy Goin' Aussie
DYEAR=1900
DGENRE=
TTITLE0=I'm Aussie All Over
TTITLE1=Casey's Luck
TTITLE2=But Not Today
TTITLE3=The Prince
TTITLE4=The Blue Gum Tree Ball
TTITLE5=My Old Enamel Mug
TTITLE6=Easy Goin' Aussie
TTITLE7=Ridin' with a Smile and a Song
TTITLE8=The day I rode the emu
TTITLE9=Equaliser Breathalyser
TTITLE10=Home Among the Gum Trees
EXTD=
EXTT0=
EXTT1=
EXTT2=
EXTT3=
EXTT4=
EXTT5=
EXTT6=
EXTT7=
EXTT8=
EXTT9=
EXTT10=
PLAYORDER=
